HIERARCHY
ROOT root
{
	OFFSET	0	13.1	24.9
	CHANNELS 6  Xposition Yposition Zposition Xrotation Yrotation Zrotation
	JOINT spine_1
	{
		OFFSET	0	9.99999	0
		CHANNELS 3  Xrotation Yrotation Zrotation
		JOINT spine_2
		{
			OFFSET	0	112	-10
			CHANNELS 3  Xrotation Yrotation Zrotation
			JOINT spine_3
			{
				OFFSET	0	206.5	19.3
				CHANNELS 3  Xrotation Yrotation Zrotation
				JOINT spine_4
				{
					OFFSET	0	110.4	14.6
					CHANNELS 3  Xrotation Yrotation Zrotation
					JOINT neck_1
					{
						OFFSET	0	71.8	-50.3
						CHANNELS 3  Xrotation Yrotation Zrotation
						JOINT neck_2
						{
							OFFSET	0	86.2	-25.8
							CHANNELS 3  Xrotation Yrotation Zrotation
							JOINT head_ee
							{
								OFFSET	0	179.8	-8.7
								CHANNELS 3  Xrotation Yrotation Zrotation
								End Site
								{
									OFFSET	1	0	0
								}
							}
						}
					}
					JOINT left_clavicle
					{
						OFFSET	-43.2	22.4	-70.8
						CHANNELS 3  Xrotation Yrotation Zrotation
						JOINT left_shoulder
						{
							OFFSET	-93.9	-5.79999	48.7
							CHANNELS 3  Xrotation Yrotation Zrotation
							JOINT left_elbow
							{
								OFFSET	-291.4	-30.8	15.2
								CHANNELS 3  Xrotation Yrotation Zrotation
								JOINT left_lowarm_twist
								{
									OFFSET	-110.7	-3.89999	13.6
									CHANNELS 3  Xrotation Yrotation Zrotation
									JOINT left_hand
									{
										OFFSET	-110.7	-3.89999	13.6
										CHANNELS 3  Xrotation Yrotation Zrotation
										JOINT left_ee
										{
											OFFSET	-80.8	-5.10001	12.1
											CHANNELS 3  Xrotation Yrotation Zrotation
											End Site
											{
												OFFSET	1	0	0
											}
										}
									}
								}
							}
						}
					}
					JOINT right_clavicle
					{
						OFFSET	43.2	22.4	-70.8
						CHANNELS 3  Xrotation Yrotation Zrotation
						JOINT right_shoulder
						{
							OFFSET	93.9	-5.79999	48.7
							CHANNELS 3  Xrotation Yrotation Zrotation
							JOINT right_elbow
							{
								OFFSET	291.4	-30.8	15.2
								CHANNELS 3  Xrotation Yrotation Zrotation
								JOINT right_lowarm_twist
								{
									OFFSET	110.7	-3.89999	13.6
									CHANNELS 3  Xrotation Yrotation Zrotation
									JOINT right_hand
									{
										OFFSET	110.7	-3.89999	13.6
										CHANNELS 3  Xrotation Yrotation Zrotation
										JOINT right_ee
										{
											OFFSET	80.8	-5.10001	12.1
											CHANNELS 3  Xrotation Yrotation Zrotation
											End Site
											{
												OFFSET	1	0	0
											}
										}
									}
								}
							}
						}
					}
				}
			}
		}
	}
	JOINT left_hip
	{
		OFFSET	-82.8	-127.5	0.300001
		CHANNELS 3  Xrotation Yrotation Zrotation
		JOINT left_knee
		{
			OFFSET	-28.2	-396.7	2.2
			CHANNELS 3  Xrotation Yrotation Zrotation
			JOINT left_ankle
			{
				OFFSET	-11.7	-411.3	35.4
				CHANNELS 3  Xrotation Yrotation Zrotation
				JOINT left_toes
				{
					OFFSET	0	-60	-88.6
					CHANNELS 3  Xrotation Yrotation Zrotation
					JOINT left_foot_ee
					{
						OFFSET	-22.5	-16.5	-42.2
						CHANNELS 3  Xrotation Yrotation Zrotation
						End Site
						{
							OFFSET	1	0	0
						}
					}
				}
			}
		}
	}
	JOINT right_hip
	{
		OFFSET	82.8	-127.5	0.300001
		CHANNELS 3  Xrotation Yrotation Zrotation
		JOINT right_knee
		{
			OFFSET	28.2	-396.7	2.2
			CHANNELS 3  Xrotation Yrotation Zrotation
			JOINT right_ankle
			{
				OFFSET	11.7	-411.3	35.4
				CHANNELS 3  Xrotation Yrotation Zrotation
				JOINT right_toes
				{
					OFFSET	0	-60	-88.6
					CHANNELS 3  Xrotation Yrotation Zrotation
					JOINT right_foot_ee
					{
						OFFSET	22.5	-16.5	-42.2
						CHANNELS 3  Xrotation Yrotation Zrotation
						End Site
						{
							OFFSET	1	0	0
						}
					}
				}
			}
		}
	}
}
MOTION
Frames: 14
Frame Time: 0.02
2525.59233996 738.414 -1474.39943793 176.953135699 71.9365104921 -175.081046615 2.47851 -0.144978 -0.324454 2.47856 -0.124038 -0.333022 2.47928 -0.0664399 -0.349106 2.47913 -0.12074 -0.334232 -20.3352 12.3617 -2.08173 -21.312 24.8551 3.58776 -0.0 0.0 -0.0 3.7756 18.2307 7.87932 -38.6133 -38.3046 57.5637 0.30247 -8.5217 0.0225351 -33.6028 -2.29792 3.56439 3.29106 29.1802 30.7613 -0.0 0.0 -0.0 11.9309 -25.3642 -19.3106 13.3747 -30.4172 -59.9282 0.239446 6.76466 -0.0141517 -14.9409 0.759026 -1.74773 9.37654 24.5128 -58.808 0.0 0.0 0.0 -7.93119 -13.4079 -13.1351 -16.1234 0.321655 2.44525 39.6279 -9.70437 -4.98769 14.6772 -0.0 -0.0 -0.0 0.0 -0.0 2.58925 2.29474 -7.73606 3.19262 0.144577 0.468476 18.5848 1.51878 2.5838 -21.3345 0.0 0.0 0.0 0.0 0.0 
2514.58151425 736.922 -1454.34509749 177.786165063 68.7070661577 -175.914865598 2.43539 -0.142208 -0.359401 2.43546 -0.11905 -0.367722 2.43622 -0.0554166 -0.382519 2.43603 -0.115132 -0.368967 -20.0034 13.0097 0.46027 -20.9576 24.8324 6.1436 -0.0 0.0 -0.0 3.52947 18.643 7.50913 -39.8021 -37.9037 57.601 0.359013 -10.0845 0.0316765 -33.6978 -2.3072 3.57228 3.55566 28.2857 32.3928 -0.0 0.0 -0.0 11.7943 -25.4943 -19.0723 13.6009 -30.772 -60.4677 0.264999 7.47879 -0.0173198 -14.1916 0.710256 -1.66516 9.56152 24.5387 -60.8894 0.0 0.0 0.0 -6.89301 -12.0164 -13.322 -14.9824 0.32165 2.27018 37.9249 -7.97673 -4.79936 15.0205 -0.0 -0.0 -0.0 0.0 -0.0 1.35448 2.39071 -7.82694 4.77553 0.225905 0.69765 19.6761 1.102 2.71851 -21.1689 0.0 0.0 0.0 0.0 0.0 
2504.28844115 735.575 -1433.82351419 178.978129197 65.8526920771 -177.629962721 2.58526 -0.053384 -0.718206 2.58555 -0.00757567 -0.720147 2.58559 0.111977 -0.711429 2.58488 -0.00178202 -0.720185 -19.783 14.9621 6.17717 -20.6578 25.7071 12.1874 -0.0 0.0 -0.0 3.41747 19.1472 7.34866 -40.3874 -37.6154 58.0312 0.412775 -11.5565 0.0417702 -33.4293 -2.28101 3.54994 3.82855 27.6296 34.1767 -0.0 0.0 -0.0 11.4974 -25.2878 -18.682 14.1296 -30.8476 -60.7935 0.289317 8.15621 -0.0206274 -13.6715 0.677043 -1.60748 9.72479 23.7803 -64.066 0.0 0.0 0.0 -5.8956 -9.9155 -12.7537 -14.1642 0.3195 2.14467 37.3055 -6.91508 -4.72285 15.4112 -0.0 -0.0 -0.0 0.0 -0.0 0.317365 2.40498 -7.50746 6.16049 0.302246 0.896295 20.4722 0.530536 2.81375 -21.0522 0.0 0.0 0.0 0.0 0.0 
2494.2077775 735.714 -1414.52232321 178.92643726 62.9555787819 -177.45477773 2.59559 -0.0939884 -0.790188 2.59593 -0.0435178 -0.794567 2.59647 0.0887246 -0.790797 2.5956 -0.0372764 -0.794885 -18.541 15.8595 8.9145 -19.1882 25.8388 14.6991 -0.0 0.0 -0.0 2.99817 19.4549 6.72709 -40.6207 -36.7733 58.7915 0.47272 -13.1798 0.0546112 -32.2919 -2.17117 3.45393 3.97562 25.6487 34.9606 -0.0 0.0 -0.0 10.9854 -24.9746 -17.9959 14.3417 -30.8402 -62.602 0.286532 8.07875 -0.0202343 -13.662 0.676438 -1.60642 9.93321 23.3205 -67.712 0.0 0.0 0.0 -3.20665 -7.22463 -12.3078 -12.4335 0.30905 1.87934 33.5308 -2.07605 -4.29322 13.5787 -0.0 -0.0 -0.0 0.0 -0.0 -0.535731 2.25374 -7.78982 5.62446 0.272128 0.819627 20.3515 -0.931499 2.79022 -21.1505 0.0 0.0 0.0 0.0 0.0 
2491.57345455 737.758 -1409.26309374 -179.435484392 61.7851941852 -178.89576897 2.61654 -0.363915 -0.770646 2.61681 -0.314141 -0.79224 2.62114 -0.178931 -0.833251 2.62031 -0.308278 -0.794539 -17.8299 16.8164 10.6554 -18.3646 26.6164 16.4661 -0.0 0.0 -0.0 3.11888 19.4286 6.90683 -40.4427 -36.128 59.6626 0.468008 -13.0529 0.0535419 -31.4625 -2.09229 3.38256 4.13654 24.9834 36.0384 -0.0 0.0 -0.0 11.1102 -25.2903 -18.1075 14.1552 -30.7848 -63.0903 0.301035 8.48186 -0.0223229 -13.0802 0.63992 -1.54154 10.0886 23.0476 -70.6345 0.0 0.0 0.0 -1.52874 -9.04509 -12.1256 -9.76417 0.277234 1.47104 32.4347 -0.854033 -4.17119 13.5977 -0.0 -0.0 -0.0 0.0 -0.0 -0.945506 2.52718 -7.80647 6.89968 0.344956 1.00156 21.3789 -0.182715 2.92073 -20.9368 0.0 0.0 0.0 0.0 0.0 
2469.18043343 738.467 -1433.38486147 -176.487717587 66.6954242296 178.506953597 2.53714 -0.855083 -0.806453 2.53714 -0.802035 -0.859228 2.54931 -0.647898 -0.980691 2.54884 -0.794643 -0.866069 -16.0334 22.9062 11.0067 -17.2835 37.7701 18.8876 -0.0 0.0 -0.0 3.70491 15.2829 7.72159 -36.9458 -36.1753 62.6482 0.521257 -14.4786 0.0662136 -17.6029 -0.94097 2.03585 5.75345 15.0882 47.9399 -0.0 0.0 -0.0 10.6157 -25.5808 -17.3176 13.4808 -30.4573 -65.6699 0.354983 9.9736 -0.0309747 -12.3259 0.59356 -1.45687 10.2965 21.6727 -78.0573 0.0 0.0 0.0 -1.46208 -6.3765 -11.69 9.32016 -0.494285 -1.34233 -2.53528 6.63815 0.373334 1.67022 -0.0 -0.0 -0.0 0.0 -0.0 -0.805869 -0.282587 -7.95724 5.63272 0.272587 0.820811 23.0758 2.11745 3.14277 -21.0478 0.0 0.0 0.0 0.0 0.0 
2461.30168869 738.306 -1436.07469788 -176.291975503 68.2999076022 178.290160682 2.55252 -0.500789 -0.834284 2.55279 -0.446688 -0.864457 2.55955 -0.296748 -0.926688 2.55862 -0.439372 -0.868199 -16.9246 23.0049 12.3969 -18.1841 37.4318 20.5096 -0.0 0.0 -0.0 3.65478 14.0479 7.61257 -36.3261 -37.2536 62.2545 0.522634 -14.5152 0.0665585 -13.1958 -0.647121 1.55445 6.11837 13.1465 51.1373 -0.0 0.0 -0.0 10.6736 -25.5085 -17.4178 12.6058 -30.5883 -65.1815 0.37561 10.5405 -0.0346476 -16.211 0.844162 -1.88625 10.2918 21.6079 -78.1433 0.0 0.0 0.0 -1.91404 -6.31531 -11.7363 8.28075 -0.42839 -1.19675 0.164875 6.64638 -0.02413 3.01199 -0.0 -0.0 -0.0 0.0 -0.0 -0.880772 -1.35027 -7.94944 4.56279 0.214606 0.666978 22.6071 3.66967 3.10084 -21.3956 0.0 0.0 0.0 0.0 0.0 
2453.67641322 737.943 -1444.16063945 -174.65036975 71.2646121841 176.789717963 2.55164 -0.345229 -0.908148 2.55205 -0.286744 -0.928273 2.55666 -0.12835 -0.963034 2.55548 -0.278826 -0.930682 -16.0144 23.2614 12.1602 -17.1671 37.8057 20.0285 -0.0 0.0 -0.0 3.85821 11.5583 7.89116 -33.4023 -37.09 62.7444 0.512793 -14.2532 0.0641137 -9.87357 -0.450634 1.1776 6.43127 11.4499 54.0484 -0.0 0.0 -0.0 10.8199 -25.3519 -17.6664 11.463 -30.8789 -62.8634 0.411512 11.5221 -0.0415175 -12.432 0.600014 -1.46882 10.2989 21.7495 -77.8797 0.0 0.0 0.0 -2.34526 -6.19165 -11.6835 9.24299 -0.489302 -1.33156 1.40448 6.47551 -0.204938 -1.99155 0.0 0.0 -0.0 0.0 -0.0 -0.553362 -1.69168 -7.87856 3.28901 0.149348 0.482494 22.9399 4.11518 3.14562 -22.1864 0.0 0.0 0.0 0.0 0.0 
2453.62803276 737.943 -1444.73363745 -174.624250017 71.3587320042 176.762144441 2.55164 -0.345229 -0.908148 2.55205 -0.286744 -0.928273 2.55666 -0.12835 -0.963034 2.55548 -0.278826 -0.930682 -16.0144 23.2614 12.1602 -17.1671 37.8057 20.0285 -0.0 0.0 -0.0 3.85821 11.5583 7.89116 -33.4023 -37.09 62.7444 0.512793 -14.2532 0.0641137 -9.87357 -0.450634 1.1776 6.43127 11.4499 54.0484 -0.0 0.0 -0.0 10.8199 -25.3519 -17.6664 11.463 -30.8789 -62.8634 0.411512 11.5221 -0.0415175 -12.432 0.600014 -1.46882 10.2989 21.7495 -77.8797 0.0 0.0 0.0 -2.34526 -6.19165 -11.6835 9.24299 -0.489302 -1.33156 1.40448 6.47551 -0.204938 -1.99155 0.0 0.0 -0.0 0.0 -0.0 -0.553362 -1.69168 -7.87856 3.28901 0.149348 0.482494 22.9399 4.11518 3.14562 -22.1864 0.0 0.0 0.0 0.0 0.0 
2450.80760455 738.74 -1456.09037646 -173.026740106 74.1214197172 175.240931685 2.58205 -0.250762 -0.961973 2.58254 -0.189044 -0.975978 2.58569 -0.0245652 -0.993813 2.58436 -0.181204 -0.977464 -15.6623 23.3722 12.5635 -16.7023 37.6903 20.2673 -0.0 0.0 -0.0 3.89527 11.0282 7.94101 -32.0548 -37.4632 63.0194 0.516301 -14.3466 0.0649802 -7.47144 -0.322375 0.898423 6.49096 10.6255 54.4393 -0.0 0.0 -0.0 10.8585 -25.1513 -17.7682 10.7658 -31.0354 -61.5951 0.42224 11.8142 -0.0436873 -13.0968 0.640952 -1.54339 10.324 21.7771 -78.3968 0.0 0.0 0.0 -2.33928 -6.20929 -11.5556 9.39569 -0.499177 -1.35286 2.34153 5.36457 -0.341114 -2.13133 0.0 0.0 -0.0 0.0 -0.0 0.0845893 -1.56949 -7.51241 2.37947 0.105274 0.349917 21.9245 4.11751 3.02238 -23.1416 0.0 0.0 0.0 0.0 0.0 
2450.72852726 738.74 -1457.7329244 -172.910046914 74.388154726 175.119689555 2.58205 -0.250762 -0.961973 2.58254 -0.189044 -0.975978 2.58569 -0.0245652 -0.993813 2.58436 -0.181204 -0.977464 -15.6623 23.3722 12.5635 -16.7023 37.6903 20.2673 -0.0 0.0 -0.0 3.89527 11.0282 7.94101 -32.0548 -37.4632 63.0194 0.516301 -14.3466 0.0649802 -7.47144 -0.322375 0.898423 6.49096 10.6255 54.4393 -0.0 0.0 -0.0 10.8585 -25.1513 -17.7682 10.7658 -31.0354 -61.5951 0.42224 11.8142 -0.0436873 -13.0968 0.640952 -1.54339 10.324 21.7771 -78.3968 0.0 0.0 0.0 -2.33928 -6.20929 -11.5556 9.39569 -0.499177 -1.35286 2.34153 5.36457 -0.341114 -2.13133 0.0 0.0 -0.0 0.0 -0.0 0.0845893 -1.56949 -7.51241 2.37947 0.105274 0.349917 21.9245 4.11751 3.02238 -23.1416 0.0 0.0 0.0 0.0 0.0 
2450.92541123 738.74 -1453.89410823 -173.17674015 73.7645641657 175.397020492 2.58205 -0.250762 -0.961973 2.58254 -0.189044 -0.975978 2.58569 -0.0245652 -0.993813 2.58436 -0.181204 -0.977464 -15.6623 23.3722 12.5635 -16.7023 37.6903 20.2673 -0.0 0.0 -0.0 3.89527 11.0282 7.94101 -32.0548 -37.4632 63.0194 0.516301 -14.3466 0.0649802 -7.47144 -0.322375 0.898423 6.49096 10.6255 54.4393 -0.0 0.0 -0.0 10.8585 -25.1513 -17.7682 10.7658 -31.0354 -61.5951 0.42224 11.8142 -0.0436873 -13.0968 0.640952 -1.54339 10.324 21.7771 -78.3968 0.0 0.0 0.0 -2.33928 -6.20929 -11.5556 9.39569 -0.499177 -1.35286 2.34153 5.36457 -0.341114 -2.13133 0.0 0.0 -0.0 0.0 -0.0 0.0845893 -1.56949 -7.51241 2.37947 0.105274 0.349917 21.9245 4.11751 3.02238 -23.1416 0.0 0.0 0.0 0.0 0.0 
2446.00494402 737.167 -1457.08850846 -172.033700259 75.040110563 174.27236258 2.84941 -0.167729 -0.97777 2.84994 -0.105174 -0.98646 2.85162 0.0552966 -0.990508 2.85026 -0.101822 -0.986811 -15.4405 23.456 13.0422 -16.3793 37.5122 20.6159 -0.0 0.0 -0.0 3.85764 10.5293 7.86289 -31.5544 -37.5572 62.5089 0.525835 -14.6003 0.0673629 -5.73713 -0.237123 0.693691 6.36044 9.65766 52.5869 -0.0 0.0 -0.0 10.7266 -25.0057 -17.6063 10.5231 -31.0305 -60.3677 0.431892 12.0764 -0.0456849 -13.4952 0.665903 -1.58786 10.2902 21.617 -78.0754 0.0 0.0 0.0 -2.88225 -6.12087 -11.6559 9.01898 -0.474919 -1.30027 3.85395 5.17432 -0.559212 -1.08839 0.0 0.0 -0.0 0.0 -0.0 0.0848515 -1.7964 -7.51537 1.44033 0.0619855 0.212323 23.8219 4.40953 3.25448 -23.2062 0.0 0.0 0.0 0.0 0.0 
2441.78793512 731.763 -1452.45421669 -169.802125609 75.5550169233 172.168138953 3.05732 -0.0538201 -1.02451 3.0579 0.0114777 -1.02586 3.0575 0.173162 -1.01121 3.05607 0.0112963 -1.02586 -14.0241 23.6466 11.5166 -14.9116 38.3441 18.7783 -0.0 0.0 -0.0 3.67762 10.9429 7.56512 -29.7076 -37.808 62.3256 0.586459 -16.1995 0.0834635 -4.23808 -0.168467 0.514747 6.0004 8.50607 48.3379 -0.0 0.0 -0.0 10.5028 -24.8783 -17.3042 10.0538 -31.0828 -58.6657 0.423222 11.8409 -0.0438885 -13.6124 0.673302 -1.60091 10.3287 21.8026 -78.4296 0.0 0.0 0.0 -1.9591 -6.37509 -11.5354 7.55625 -0.384033 -1.0946 6.16813 4.92221 -0.889101 2.15832 -0.0 -0.0 -0.0 0.0 -0.0 0.242655 -1.92037 -7.16668 0.747513 0.0315025 0.110383 28.8085 4.54614 3.82689 -21.3803 0.0 0.0 0.0 0.0 0.0 
